<svg width="720" height="504" viewBox="0 0 720 504" fill="none" xmlns="http://www.w3.org/2000/svg">
<g id="mountains-cottage 1" clip-path="url(#clip0_2:2)">
<g id="66 1">
<path id="Vector" d="M-5 502H720L719.895 -2H-4.60125L-5 502Z" fill="url(#paint0_linear_2:2)"/>
<path id="Vector_2" opacity="0.68" d="M204.896 393.726L99.167 307.078L45.634 358.497L36.639 349.185L0 370.641V421.744H165.732L204.896 393.726Z" fill="#E9EEFF"/>
<path id="Vector_3" opacity="0.68" d="M288.298 302.42C287.897 301.876 364.473 250.33 364.473 250.33L399.473 276.375L333.656 370.663L288.298 302.42Z" fill="#E9EEFF"/>
<path id="Vector_4" opacity="0.68" d="M351.167 336.745L259.536 251.219L182.058 344.192L172.522 340.616L129.612 384.719L98.621 362.071L36.639 432.489H375.156L351.167 336.745Z" fill="#CDD9FC"/>
<path id="Vector_5" d="M338.988 346.173L296.458 326.866L263.511 358.497H250.757L158.532 429.342L309.212 398.074L338.988 346.173Z" fill="white"/>
<path id="Vector_6" d="M481.806 146.497L413.806 245.83V230.497L358.473 315.83L355.14 311.163L291.14 410.497L513.818 410.158L557.806 355.163L481.806 146.497Z" fill="white"/>
<path id="gorge" d="M617.06 309L610.578 301L564.456 244.079V251.412L567.122 260.079L483.122 146.745L499.789 215.412L493.122 216.745L511.122 266.079L520.456 269.412L524.456 286.079L502.456 282.745L473.122 330.745L505.789 318.745L525.122 337.412L519.122 350.079L545 381L578 388" fill="#CAD1FA"/>
<g id="Group">
<g id="Group_2">
<g id="Group_3">
<path id="Vector_8" d="M131.718 395.854L134.159 403.177L132.938 404.601H134.565L135.989 408.873L134.972 411.619H136.599L137.718 414.874L135.887 417.315L138.226 416.603L139.446 420.875L136.54 423.61C133.385 418.598 130.54 413.386 127.447 408.408L131.718 395.854Z" fill="#B4D6C2"/>
</g>
<g id="Group_4">
<path id="Vector_9" d="M128.26 414.975L126.633 410.805L127.449 408.407C130.542 413.385 133.388 418.597 136.542 423.609L134.261 425.756L127.447 425.146L123.48 420.671L126.124 412.636L128.26 414.975Z" fill="#B4D6C2"/>
</g>
</g>
<g id="Group_5">
<g id="Group_6">
<path id="Vector_10" d="M117.365 403.579L118.937 408.294L118.151 409.211H119.199L120.116 411.961L119.461 413.729H120.509L121.229 415.825L120.05 417.397L121.556 416.939L122.342 419.689L120.471 421.45C118.44 418.223 116.608 414.867 114.616 411.662L117.365 403.579Z" fill="#B4D6C2"/>
</g>
<g id="Group_7">
<path id="Vector_11" d="M115.139 415.89L114.091 413.205L114.616 411.661C116.608 414.866 118.44 418.222 120.471 421.449L119.002 422.831L114.614 422.438L112.06 419.557L113.763 414.384L115.139 415.89Z" fill="#B4D6C2"/>
</g>
</g>
<path id="Vector_12" d="M154.487 419.372L154.037 417.752L151.612 420.171L153.58 415.75L152.962 413.61L150.3 404.397L148.842 399.349L145.837 407.133L146.443 407.91L147.083 408.732L145.615 408.664L145.326 408.65L145.161 409.078L143.573 413.191L144.533 416.208L142.776 416.126L141.403 419.584L143.257 422.312L140.767 421.426L139.234 425.977L139.304 426.05L142.982 429.85L144.589 431.51L151.978 431.195L156.487 426.562L154.487 419.372Z" fill="#B4D6C2"/>
<g id="Group_8">
<g id="Group_9">
<path id="Vector_13" d="M165.511 406.638L167.432 412.402L166.471 413.523H167.752L168.873 416.885L168.072 419.047H169.353L170.234 421.609L168.793 423.53L170.634 422.97L171.595 426.332L169.308 428.485C166.825 424.54 164.585 420.438 162.15 416.519L165.511 406.638Z" fill="#B4D6C2"/>
</g>
<g id="Group_10">
<path id="Vector_14" d="M162.789 421.689L161.508 418.407L162.15 416.52C164.585 420.439 166.824 424.541 169.308 428.486L167.513 430.176L162.149 429.696L159.027 426.174L161.108 419.849L162.789 421.689Z" fill="#B4D6C2"/>
</g>
</g>
</g>
<g id="Group_11">
<g id="Group_12">
<g id="Group_13">
<path id="Vector_15" d="M54.597 392.669L52.156 399.992L53.377 401.416H51.75L50.326 405.688L51.343 408.434H49.716L48.597 411.689L50.428 414.13L48.089 413.418L46.869 417.69L49.775 420.425C52.93 415.413 55.775 410.201 58.868 405.223L54.597 392.669Z" fill="#B4D6C2"/>
</g>
<g id="Group_14">
<path id="Vector_16" d="M58.055 411.79L59.6819 407.62L58.866 405.222C55.773 410.2 52.9269 415.412 49.7729 420.424L52.054 422.571L58.868 421.961L62.8349 417.486L60.191 409.451L58.055 411.79Z" fill="#B4D6C2"/>
</g>
</g>
<g id="Group_15">
<g id="Group_16">
<path id="Vector_17" d="M68.95 400.393L67.378 405.108L68.164 406.025H67.116L66.199 408.775L66.854 410.543H65.806L65.086 412.639L66.265 414.211L64.759 413.753L63.973 416.504L65.844 418.265C67.875 415.038 69.707 411.682 71.699 408.477L68.95 400.393Z" fill="#B4D6C2"/>
</g>
<g id="Group_17">
<path id="Vector_18" d="M71.176 412.705L72.224 410.02L71.699 408.476C69.707 411.681 67.875 415.037 65.844 418.264L67.313 419.646L71.701 419.253L74.255 416.372L72.552 411.199L71.176 412.705Z" fill="#B4D6C2"/>
</g>
</g>
<path id="Vector_19" d="M31.8279 416.186L32.2779 414.567L34.7029 416.985L32.7349 412.564L33.3529 410.425L36.0149 401.211L37.4729 396.163L40.4779 403.948L39.8719 404.725L39.2319 405.547L40.6999 405.478L40.9889 405.465L41.1539 405.892L42.7419 410.006L41.7819 413.022L43.5399 412.94L44.9119 416.398L43.0579 419.127L45.5479 418.24L47.0809 422.791L47.0109 422.864L43.3329 426.665L41.7259 428.325L34.3369 428.009L29.8279 423.377L31.8279 416.186Z" fill="#B4D6C2"/>
<g id="Group_18">
<g id="Group_19">
<path id="Vector_20" d="M20.804 403.453L18.883 409.217L19.844 410.338H18.563L17.442 413.7L18.243 415.862H16.962L16.081 418.424L17.522 420.345L15.681 419.784L14.72 423.146L17.008 425.299C19.491 421.354 21.731 417.252 24.166 413.333L20.804 403.453Z" fill="#B4D6C2"/>
</g>
<g id="Group_20">
<path id="Vector_21" d="M23.526 418.503L24.807 415.221L24.165 413.334C21.73 417.253 19.491 421.355 17.007 425.3L18.802 426.99L24.166 426.51L27.288 422.988L25.207 416.663L23.526 418.503Z" fill="#B4D6C2"/>
</g>
</g>
</g>
<g id="Group_21">
<g id="Group_22">
<g id="Group_23">
<path id="Vector_22" d="M97.765 392.669L95.324 399.992L96.545 401.416H94.918L93.494 405.688L94.511 408.434H92.884L91.765 411.689L93.596 414.13L91.257 413.418L90.037 417.69L92.943 420.425C96.098 415.413 98.943 410.201 102.036 405.223L97.765 392.669Z" fill="#A8BABE"/>
</g>
<g id="Group_24">
<path id="Vector_23" d="M101.223 411.79L102.85 407.62L102.034 405.222C98.941 410.2 96.095 415.412 92.941 420.424L95.222 422.571L102.036 421.961L106.003 417.486L103.359 409.451L101.223 411.79Z" fill="#A8BABE"/>
</g>
</g>
<g id="Group_25">
<g id="Group_26">
<path id="Vector_24" d="M112.118 400.393L110.546 405.108L111.332 406.025H110.284L109.367 408.775L110.022 410.543H108.974L108.254 412.639L109.433 414.211L107.927 413.753L107.141 416.504L109.012 418.265C111.043 415.038 112.875 411.682 114.867 408.477L112.118 400.393Z" fill="#A8BABE"/>
</g>
<g id="Group_27">
<path id="Vector_25" d="M114.345 412.705L115.393 410.02L114.868 408.476C112.876 411.681 111.044 415.037 109.013 418.264L110.482 419.646L114.87 419.253L117.424 416.372L115.721 411.199L114.345 412.705Z" fill="#A8BABE"/>
</g>
</g>
<path id="Vector_26" d="M74.996 416.186L75.447 414.567L77.871 416.985L75.904 412.564L76.522 410.425L79.183 401.211L80.641 396.163L83.646 403.948L83.041 404.725L82.4 405.547L83.868 405.478L84.158 405.465L84.323 405.892L85.911 410.006L84.951 413.022L86.708 412.94L88.08 416.398L86.226 419.127L88.717 418.24L90.25 422.791L90.18 422.864L86.501 426.665L84.895 428.325L77.505 428.009L72.996 423.377L74.996 416.186Z" fill="#A8BABE"/>
<g id="Group_28">
<g id="Group_29">
<path id="Vector_27" d="M63.973 403.453L62.052 409.217L63.013 410.338H61.732L60.61 413.7L61.411 415.862H60.13L59.249 418.424L60.69 420.345L58.849 419.784L57.888 423.146L60.176 425.299C62.659 421.354 64.899 417.252 67.334 413.333L63.973 403.453Z" fill="#A8BABE"/>
</g>
<g id="Group_30">
<path id="Vector_28" d="M66.694 418.503L67.975 415.221L67.333 413.334C64.898 417.253 62.659 421.355 60.175 425.3L61.97 426.99L67.334 426.51L70.456 422.988L68.375 416.663L66.694 418.503Z" fill="#A8BABE"/>
</g>
</g>
</g>
<path id="Vector_29" d="M329.473 406.497L399.473 310.497L364.473 406.497H329.473Z" fill="#DEE3FF"/>
<path id="Vector_30" d="M394.806 410.497C394.806 408.497 415.473 369.164 415.473 369.164L418.806 372.497L432.139 341.83L461.472 410.497H394.806Z" fill="#DEE3FF"/>
<path id="Vector_31" d="M720 415.006C720 415.006 586.36 387.23 544.862 381.739C503.365 376.248 437.308 375.495 361.936 381.739C286.564 387.983 165.798 426.929 148.86 439.417C131.922 451.905 719.994 477.474 719.994 477.474L720 415.006Z" fill="#F7F8FC"/>
<g id="Group_31">
<g id="Group_32">
<path id="Vector_32" d="M241.98 434.212L240.731 436.424C240.731 436.424 240.026 435.419 240.271 435.093C240.516 434.767 241.98 434.212 241.98 434.212Z" fill="#AEB7CE"/>
</g>
<g id="Group_33">
<path id="Vector_33" d="M226.547 438.263L227.819 440.462C227.819 440.462 226.596 440.56 226.439 440.182C226.282 439.806 226.547 438.263 226.547 438.263Z" fill="#AEB7CE"/>
</g>
<g id="Group_34">
<path id="Vector_34" d="M232.251 437.225L234.427 435.953C234.427 435.953 233.944 437.47 233.454 437.905C232.965 438.341 231.178 437.852 232.251 437.225Z" fill="#AEB7CE"/>
</g>
<g id="Group_35">
<path id="Vector_35" d="M200.711 423.935L199.123 421.906C199.123 421.906 198.778 422.602 199.415 423.498C200.018 424.346 200.363 424.218 200.711 423.935Z" fill="#AEB7CE"/>
</g>
<g id="Group_36">
<path id="Vector_36" d="M202.112 430.415C202.112 430.415 203.083 432.208 203.298 432.403C203.513 432.598 201.999 432.457 201.788 431.843C201.577 431.228 202.026 431.076 202.112 430.415Z" fill="#AEB7CE"/>
</g>
<g id="Group_37">
<g id="Group_38">
<g id="Group_39">
<path id="Vector_37" d="M232.688 415.385L232.272 426.339L232.672 426.354L233.088 415.4L232.688 415.385Z" fill="#AEB7CE"/>
</g>
</g>
<g id="Group_40">
<g id="Group_41">
<path id="Vector_38" d="M227.935 443.416L227.558 443.285L235.033 416.352L235.418 416.459L228.789 440.346C232.37 431.8 237.6 419.294 237.716 418.929L238.102 419.03C238.028 419.338 228.968 440.952 227.935 443.416Z" fill="#AEB7CE"/>
</g>
</g>
<g id="Group_42">
<g id="Group_43">
<path id="Vector_39" d="M235.889 419.741L235.148 425.119L235.543 425.173L236.284 419.795L235.889 419.741Z" fill="#AEB7CE"/>
</g>
</g>
<g id="Group_44">
<g id="Group_45">
<path id="Vector_40" d="M240.711 421.14L231.93 432.877L232.249 433.116L241.031 421.379L240.711 421.14Z" fill="#AEB7CE"/>
</g>
</g>
<g id="Group_46">
<g id="Group_47">
<path id="Vector_41" d="M229.733 439.053L229.494 438.733C230.311 438.122 242.926 425.529 243.267 424.983L243.429 425.085L243.568 424.91L243.645 425.072C243.64 425.508 229.872 438.949 229.733 439.053Z" fill="#AEB7CE"/>
</g>
</g>
<g id="Group_48">
<g id="Group_49">
<path id="Vector_42" d="M244.35 427.107L229.269 443.495L229.563 443.765L244.643 427.377L244.35 427.107Z" fill="#AEB7CE"/>
</g>
</g>
<g id="Group_50">
<g id="Group_51">
<path id="Vector_43" d="M243.926 434.907L233.037 439.582L233.194 439.95L244.083 435.275L243.926 434.907Z" fill="#AEB7CE"/>
</g>
</g>
<g id="Group_52">
<g id="Group_53">
<path id="Vector_44" d="M225.06 443.518L224.661 443.526L224.479 435.182L228.133 413.945L228.526 414.013L224.875 435.212L225.06 443.518Z" fill="#AEB7CE"/>
</g>
</g>
<g id="Group_54">
<g id="Group_55">
<path id="Vector_45" d="M224.945 435.947L224.553 436.023C220.051 412.618 220.115 412.526 220.176 412.436L220.341 412.549L220.378 412.745L220.342 412.549L220.54 412.554C220.563 413.066 223.432 428.08 224.945 435.947Z" fill="#AEB7CE"/>
</g>
</g>
<g id="Group_56">
<g id="Group_57">
<path id="Vector_46" d="M224.809 434.411L224.411 434.384L225.131 423.509L226.069 412.865L226.467 412.9L225.529 423.54L224.809 434.411Z" fill="#AEB7CE"/>
</g>
</g>
<g id="Group_58">
<g id="Group_59">
<path id="Vector_47" d="M222.28 412.342L221.899 412.46L225.181 423.028L225.562 422.91L222.28 412.342Z" fill="#AEB7CE"/>
</g>
</g>
<g id="Group_60">
<g id="Group_61">
<path id="Vector_48" d="M231.299 414.907L226.69 422.389L227.029 422.599L231.639 415.117L231.299 414.907Z" fill="#AEB7CE"/>
</g>
</g>
<g id="Group_62">
<g id="Group_63">
<path id="Vector_49" d="M230.378 419.217L229.979 419.218L230.023 434.352L230.422 434.351L230.378 419.217Z" fill="#AEB7CE"/>
</g>
</g>
<g id="Group_64">
<g id="Group_65">
<path id="Vector_50" d="M227.423 432.583L227.026 432.618L227.9 442.582L228.297 442.547L227.423 432.583Z" fill="#AEB7CE"/>
</g>
</g>
<g id="Group_66">
<g id="Group_67">
<path id="Vector_51" d="M218.681 412.67L218.2 444.151L218.6 444.158L219.081 412.676L218.681 412.67Z" fill="#AEB7CE"/>
</g>
</g>
<g id="Group_68">
<g id="Group_69">
<path id="Vector_52" d="M221.317 443.928L220.918 443.909C221.43 432.946 221.859 427.282 222.191 427.073L222.392 427.057L222.235 427.425C222.336 427.468 222.431 427.408 222.452 427.363C222.16 427.943 221.613 437.587 221.317 443.928Z" fill="#AEB7CE"/>
</g>
</g>
<g id="Group_70">
<g id="Group_71">
<path id="Vector_53" d="M213.78 417.533L213.431 417.728L216.359 422.975L216.709 422.78L213.78 417.533Z" fill="#AEB7CE"/>
</g>
</g>
<g id="Group_72">
<g id="Group_73">
<path id="Vector_54" d="M219.987 423.073L219.589 423.111L221.192 439.841L221.59 439.803L219.987 423.073Z" fill="#AEB7CE"/>
</g>
</g>
<g id="Group_74">
<g id="Group_75">
<path id="Vector_55" d="M214.781 446.134L213.951 433.082L214.349 433.057L214.969 442.795L217.045 431.108L215.427 412.594L215.825 412.559L217.443 431.152L214.781 446.134Z" fill="#AEB7CE"/>
</g>
</g>
<g id="Group_76">
<g id="Group_77">
<path id="Vector_56" d="M215.095 423.465L211.336 438.936L211.723 439.03L215.483 423.559L215.095 423.465Z" fill="#AEB7CE"/>
</g>
</g>
<g id="Group_78">
<g id="Group_79">
<path id="Vector_57" d="M211.882 446.09L207.826 433.576L207.823 433.556L205.78 414.677L206.178 414.635L208.218 433.492L211.43 443.401L210.842 412.981L211.241 412.973L211.882 446.09Z" fill="#AEB7CE"/>
</g>
</g>
<g id="Group_80">
<g id="Group_81">
<path id="Vector_58" d="M202.979 416.493L202.612 416.649L206.999 426.975L207.366 426.819L202.979 416.493Z" fill="#AEB7CE"/>
</g>
</g>
<g id="Group_82">
<g id="Group_83">
<path id="Vector_59" d="M208.757 414.259L208.363 414.323L211.222 431.97L211.616 431.906L208.757 414.259Z" fill="#AEB7CE"/>
</g>
</g>
<g id="Group_84">
<g id="Group_85">
<path id="Vector_60" d="M209.132 445.031C206.687 439.552 202.582 430.326 202.562 430.098L202.96 430.064L202.761 430.081L202.955 430.036C203.074 430.446 207.717 440.882 209.496 444.868L209.132 445.031Z" fill="#AEB7CE"/>
</g>
</g>
<g id="Group_86">
<g id="Group_87">
<path id="Vector_61" d="M201.537 418.145L201.157 418.269L209.781 444.681L210.161 444.556L201.537 418.145Z" fill="#AEB7CE"/>
</g>
</g>
<g id="Group_88">
<g id="Group_89">
<path id="Vector_62" d="M203.613 438.444L203.357 438.751L208.09 442.686L208.345 442.379L203.613 438.444Z" fill="#AEB7CE"/>
</g>
</g>
<g id="Group_90">
<g id="Group_91">
<path id="Vector_63" d="M239.142 424.501L241.318 423.229C241.318 423.229 240.835 424.746 240.345 425.182C239.856 425.618 238.068 425.128 239.142 424.501Z" fill="#AEB7CE"/>
</g>
</g>
<g id="Group_92">
<g id="Group_93">
<path id="Vector_64" d="M218.875 419.035L220.647 417.999C220.647 417.999 220.253 419.234 219.855 419.589C219.456 419.945 218 419.546 218.875 419.035Z" fill="#AEB7CE"/>
</g>
</g>
<g id="Group_94">
<g id="Group_95">
<path id="Vector_65" d="M221.97 431.793L223.177 430.133C223.177 430.133 223.312 431.422 223.089 431.907C222.867 432.393 221.373 432.612 221.97 431.793Z" fill="#AEB7CE"/>
</g>
</g>
<g id="Group_96">
<g id="Group_97">
<path id="Vector_66" d="M213.98 418.677L212.392 416.648C212.392 416.648 212.047 417.344 212.685 418.24C213.287 419.087 213.631 418.96 213.98 418.677Z" fill="#AEB7CE"/>
</g>
</g>
<g id="Group_98">
<g id="Group_99">
<path id="Vector_67" d="M209.774 425.205L208.186 423.176C208.186 423.176 207.841 423.872 208.479 424.768C209.081 425.615 209.425 425.488 209.774 425.205Z" fill="#AEB7CE"/>
</g>
</g>
<g id="Group_100">
<g id="Group_101">
<path id="Vector_68" d="M213.407 425.796L213.831 428.715C213.831 428.715 212.351 428.293 212.31 427.44C212.27 426.587 213.407 425.796 213.407 425.796Z" fill="#AEB7CE"/>
</g>
</g>
<g id="Group_102">
<g id="Group_103">
<path id="Vector_69" d="M229.37 421.482C229.37 421.482 229.78 424.12 229.959 424.456C230.138 424.792 228.333 423.952 228.342 423.101C228.352 422.25 228.973 422.26 229.37 421.482Z" fill="#AEB7CE"/>
</g>
</g>
<g id="Group_104">
<g id="Group_105">
<path id="Vector_70" d="M228.936 427.781C228.936 427.781 229.8 430.308 230.035 430.607C230.27 430.906 228.345 430.394 228.207 429.555C228.067 428.715 228.681 428.616 228.936 427.781Z" fill="#AEB7CE"/>
</g>
</g>
<g id="Group_106">
<g id="Group_107">
<path id="Vector_71" d="M242.434 430.516C242.434 430.516 240.899 431.572 240.642 431.642C240.386 431.711 241.677 432.226 242.104 431.813C242.532 431.4 242.229 431.09 242.434 430.516Z" fill="#AEB7CE"/>
</g>
</g>
<g id="Group_108">
<g id="Group_109">
<path id="Vector_72" d="M224.661 422.186C224.661 422.186 224.857 424.039 224.97 424.279C225.084 424.519 223.854 423.872 223.889 423.279C223.925 422.686 224.358 422.715 224.661 422.186Z" fill="#AEB7CE"/>
</g>
</g>
<g id="Group_110">
<g id="Group_111">
<path id="Vector_73" d="M223.08 435.456C223.08 435.456 222.226 437.113 222.034 437.295C221.841 437.478 223.222 437.32 223.403 436.755C223.584 436.189 223.17 436.058 223.08 435.456Z" fill="#AEB7CE"/>
</g>
</g>
<g id="Group_112">
<g id="Group_113">
<path id="Vector_74" d="M236.956 417.277C236.956 417.277 235.421 418.333 235.164 418.403C234.908 418.472 236.199 418.987 236.626 418.574C237.054 418.162 236.751 417.851 236.956 417.277Z" fill="#AEB7CE"/>
</g>
</g>
<g id="Group_114">
<g id="Group_115">
<path id="Vector_75" d="M224.337 414.016C224.337 414.016 224.114 415.866 223.997 416.105C223.88 416.343 225.119 415.714 225.092 415.121C225.065 414.527 224.632 414.549 224.337 414.016Z" fill="#AEB7CE"/>
</g>
</g>
<g id="Group_116">
<g id="Group_117">
<path id="Vector_76" d="M215.943 430.994C215.943 430.994 216.603 432.923 216.782 433.152C216.961 433.38 215.492 432.99 215.386 432.348C215.279 431.707 215.748 431.632 215.943 430.994Z" fill="#AEB7CE"/>
</g>
</g>
<g id="Group_118">
<g id="Group_119">
<path id="Vector_77" d="M206.416 427.018C206.416 427.018 207.114 428.306 207.268 428.447C207.423 428.588 206.334 428.486 206.183 428.044C206.031 427.603 206.354 427.493 206.416 427.018Z" fill="#AEB7CE"/>
</g>
</g>
<g id="Group_120">
<g id="Group_121">
<path id="Vector_78" d="M205.064 416.582C205.064 416.582 205.787 417.917 205.947 418.063C206.107 418.209 204.979 418.103 204.822 417.645C204.665 417.187 205 417.074 205.064 416.582Z" fill="#AEB7CE"/>
</g>
</g>
<g id="Group_122">
<g id="Group_123">
<path id="Vector_79" d="M221.065 440.506C221.065 440.506 220.189 438.912 220.258 438.021C220.327 437.13 219.066 439.003 219.635 439.89C220.204 440.778 220.821 440.528 221.065 440.506Z" fill="#AEB7CE"/>
</g>
</g>
<g id="Group_124">
<g id="Group_125">
<path id="Vector_80" d="M211.434 435.603C211.434 435.603 210.3 434.18 210.218 433.291C210.135 432.401 209.209 434.46 209.92 435.238C210.632 436.017 211.197 435.666 211.434 435.603Z" fill="#AEB7CE"/>
</g>
</g>
<g id="Group_126">
<g id="Group_127">
<path id="Vector_81" d="M198.966 419.484L198.612 419.667L206.7 435.322L207.055 435.139L198.966 419.484Z" fill="#AEB7CE"/>
</g>
</g>
<g id="Group_128">
<g id="Group_129">
<path id="Vector_82" d="M195.696 421.575L195.35 421.772L206.189 440.783L206.536 440.585L195.696 421.575Z" fill="#AEB7CE"/>
</g>
</g>
<g id="Group_130">
<g id="Group_131">
<path id="Vector_83" d="M243.446 438.773L232.905 442.754L233.047 443.128L243.588 439.147L243.446 438.773Z" fill="#AEB7CE"/>
</g>
</g>
</g>
</g>
<path id="Vector_84" d="M572.782 447.077C524.318 432.41 423.405 416.41 396.185 417.744C368.965 419.077 299.256 438.411 258.094 441.744C253.476 442.118 248.159 442.118 242.333 441.827C229.936 441.206 215.211 439.254 199.88 436.707C158.197 429.784 112.048 418.481 96.104 417.666C71.54 416.411 0 421.744 0 421.744V503.999L557.513 504.077L720 503.999V464.844V457.751C720 457.75 621.246 461.744 572.782 447.077Z" fill="white"/>
<g id="Group_132">
<g id="Group_133">
<path id="Vector_85" d="M357.515 399.717L356.786 401.007C356.786 401.007 356.375 400.421 356.518 400.23C356.662 400.041 357.515 399.717 357.515 399.717Z" fill="#AEB7CE"/>
</g>
<g id="Group_134">
<path id="Vector_86" d="M348.512 402.081L349.254 403.364C349.254 403.364 348.54 403.421 348.449 403.201C348.358 402.98 348.512 402.081 348.512 402.081Z" fill="#AEB7CE"/>
</g>
<g id="Group_135">
<path id="Vector_87" d="M351.84 401.475L353.109 400.733C353.109 400.733 352.827 401.618 352.542 401.872C352.257 402.126 351.214 401.84 351.84 401.475Z" fill="#AEB7CE"/>
</g>
<g id="Group_136">
<path id="Vector_88" d="M333.44 393.722L332.513 392.538C332.513 392.538 332.312 392.944 332.684 393.467C333.036 393.961 333.237 393.887 333.44 393.722Z" fill="#AEB7CE"/>
</g>
<g id="Group_137">
<path id="Vector_89" d="M334.258 397.502C334.258 397.502 334.824 398.548 334.95 398.662C335.075 398.776 334.192 398.694 334.069 398.335C333.945 397.976 334.207 397.888 334.258 397.502Z" fill="#AEB7CE"/>
</g>
<g id="Group_138">
<g id="Group_139">
<g id="Group_140">
<path id="Vector_90" d="M352.098 388.729L351.855 395.12L352.088 395.128L352.331 388.738L352.098 388.729Z" fill="#AEB7CE"/>
</g>
</g>
<g id="Group_141">
<g id="Group_142">
<path id="Vector_91" d="M349.322 405.087L349.102 405.011L353.463 389.299L353.687 389.361L349.82 403.296C351.909 398.31 354.96 391.015 355.028 390.801L355.253 390.86C355.21 391.04 349.925 403.649 349.322 405.087Z" fill="#AEB7CE"/>
</g>
</g>
<g id="Group_143">
<g id="Group_144">
<path id="Vector_92" d="M353.955 391.283L353.523 394.421L353.754 394.452L354.186 391.315L353.955 391.283Z" fill="#AEB7CE"/>
</g>
</g>
<g id="Group_145">
<g id="Group_146">
<path id="Vector_93" d="M356.776 392.078L351.653 398.925L351.84 399.065L356.963 392.218L356.776 392.078Z" fill="#AEB7CE"/>
</g>
</g>
<g id="Group_147">
<g id="Group_148">
<path id="Vector_94" d="M350.371 402.541L350.231 402.354C350.707 401.998 358.067 394.651 358.266 394.333L358.361 394.392L358.442 394.29L358.487 394.385C358.484 394.639 350.452 402.48 350.371 402.541Z" fill="#AEB7CE"/>
</g>
</g>
<g id="Group_149">
<g id="Group_150">
<path id="Vector_95" d="M358.88 395.575L350.083 405.135L350.254 405.293L359.052 395.733L358.88 395.575Z" fill="#AEB7CE"/>
</g>
</g>
<g id="Group_151">
<g id="Group_152">
<path id="Vector_96" d="M358.652 400.123L352.3 402.85L352.392 403.064L358.744 400.337L358.652 400.123Z" fill="#AEB7CE"/>
</g>
</g>
<g id="Group_153">
<g id="Group_154">
<path id="Vector_97" d="M347.645 405.146L347.412 405.151L347.306 400.283L349.437 387.894L349.667 387.934L347.537 400.301L347.645 405.146Z" fill="#AEB7CE"/>
</g>
</g>
<g id="Group_155">
<g id="Group_156">
<path id="Vector_98" d="M347.578 400.73L347.349 400.774C344.723 387.12 344.76 387.066 344.796 387.014L344.892 387.08L344.913 387.194L344.892 387.079L345.008 387.082C345.022 387.381 346.695 396.14 347.578 400.73Z" fill="#AEB7CE"/>
</g>
</g>
<g id="Group_157">
<g id="Group_158">
<path id="Vector_99" d="M347.499 399.833L347.266 399.817L347.686 393.473L348.234 387.264L348.466 387.284L347.919 393.492L347.499 399.833Z" fill="#AEB7CE"/>
</g>
</g>
<g id="Group_159">
<g id="Group_160">
<path id="Vector_100" d="M346.021 386.964L345.798 387.033L347.713 393.199L347.936 393.13L346.021 386.964Z" fill="#AEB7CE"/>
</g>
</g>
<g id="Group_161">
<g id="Group_162">
<path id="Vector_101" d="M351.28 388.45L348.591 392.815L348.789 392.938L351.478 388.573L351.28 388.45Z" fill="#AEB7CE"/>
</g>
</g>
<g id="Group_163">
<g id="Group_164">
<path id="Vector_102" d="M350.753 390.961L350.52 390.962L350.546 399.791L350.779 399.79L350.753 390.961Z" fill="#AEB7CE"/>
</g>
</g>
<g id="Group_165">
<g id="Group_166">
<path id="Vector_103" d="M349.034 398.763L348.802 398.783L349.312 404.596L349.544 404.576L349.034 398.763Z" fill="#AEB7CE"/>
</g>
</g>
<g id="Group_167">
<g id="Group_168">
<path id="Vector_104" d="M343.927 387.147L343.646 405.513L343.879 405.516L344.16 387.15L343.927 387.147Z" fill="#AEB7CE"/>
</g>
</g>
<g id="Group_169">
<g id="Group_170">
<path id="Vector_105" d="M345.461 405.385L345.228 405.374C345.527 398.978 345.777 395.674 345.971 395.552L346.088 395.542L345.996 395.756C346.055 395.781 346.11 395.746 346.123 395.72C345.953 396.06 345.634 401.686 345.461 405.385Z" fill="#AEB7CE"/>
</g>
</g>
<g id="Group_171">
<g id="Group_172">
<path id="Vector_106" d="M341.069 389.988L340.865 390.101L342.573 393.162L342.777 393.048L341.069 389.988Z" fill="#AEB7CE"/>
</g>
</g>
<g id="Group_173">
<g id="Group_174">
<path id="Vector_107" d="M344.679 393.207L344.447 393.23L345.383 402.99L345.615 402.967L344.679 393.207Z" fill="#AEB7CE"/>
</g>
</g>
<g id="Group_175">
<g id="Group_176">
<path id="Vector_108" d="M341.648 406.672L341.164 399.058L341.396 399.043L341.758 404.724L342.969 397.906L342.025 387.105L342.257 387.085L343.201 397.932L341.648 406.672Z" fill="#AEB7CE"/>
</g>
</g>
<g id="Group_177">
<g id="Group_178">
<path id="Vector_109" d="M341.823 393.449L339.63 402.476L339.857 402.531L342.05 393.505L341.823 393.449Z" fill="#AEB7CE"/>
</g>
</g>
<g id="Group_179">
<g id="Group_180">
<path id="Vector_110" d="M339.957 406.646L337.591 399.346L337.589 399.334L336.398 388.321L336.629 388.296L337.82 399.297L339.693 405.078L339.35 387.331L339.583 387.327L339.957 406.646Z" fill="#AEB7CE"/>
</g>
</g>
<g id="Group_181">
<g id="Group_182">
<path id="Vector_111" d="M334.764 389.389L334.55 389.48L337.109 395.504L337.324 395.413L334.764 389.389Z" fill="#AEB7CE"/>
</g>
</g>
<g id="Group_183">
<g id="Group_184">
<path id="Vector_112" d="M338.132 388.063L337.902 388.1L339.569 398.395L339.799 398.357L338.132 388.063Z" fill="#AEB7CE"/>
</g>
</g>
<g id="Group_185">
<g id="Group_186">
<path id="Vector_113" d="M338.353 406.029C336.927 402.833 334.532 397.451 334.52 397.317L334.752 397.297L334.636 397.307L334.749 397.281C334.819 397.52 337.527 403.608 338.565 405.934L338.353 406.029Z" fill="#AEB7CE"/>
</g>
</g>
<g id="Group_187">
<g id="Group_188">
<path id="Vector_114" d="M333.923 390.336L333.701 390.408L338.732 405.817L338.954 405.744L333.923 390.336Z" fill="#AEB7CE"/>
</g>
</g>
<g id="Group_189">
<g id="Group_190">
<path id="Vector_115" d="M335.122 402.19L334.973 402.369L337.734 404.665L337.883 404.486L335.122 402.19Z" fill="#AEB7CE"/>
</g>
</g>
<g id="Group_191">
<g id="Group_192">
<path id="Vector_116" d="M355.86 394.052L357.129 393.31C357.129 393.31 356.847 394.195 356.562 394.449C356.276 394.704 355.233 394.418 355.86 394.052Z" fill="#AEB7CE"/>
</g>
</g>
<g id="Group_193">
<g id="Group_194">
<path id="Vector_117" d="M344.036 390.863L345.07 390.259C345.07 390.259 344.84 390.98 344.608 391.187C344.376 391.394 343.526 391.161 344.036 390.863Z" fill="#AEB7CE"/>
</g>
</g>
<g id="Group_195">
<g id="Group_196">
<path id="Vector_118" d="M345.842 398.306L346.546 397.338C346.546 397.338 346.625 398.09 346.495 398.373C346.365 398.656 345.494 398.784 345.842 398.306Z" fill="#AEB7CE"/>
</g>
</g>
<g id="Group_197">
<g id="Group_198">
<path id="Vector_119" d="M341.181 390.654L340.254 389.47C340.254 389.47 340.053 389.876 340.425 390.399C340.777 390.894 340.977 390.819 341.181 390.654Z" fill="#AEB7CE"/>
</g>
</g>
<g id="Group_199">
<g id="Group_200">
<path id="Vector_120" d="M338.727 394.463L337.8 393.279C337.8 393.279 337.599 393.685 337.971 394.208C338.323 394.702 338.524 394.628 338.727 394.463Z" fill="#AEB7CE"/>
</g>
</g>
<g id="Group_201">
<g id="Group_202">
<path id="Vector_121" d="M340.847 394.807L341.094 396.51C341.094 396.51 340.23 396.264 340.207 395.766C340.183 395.269 340.847 394.807 340.847 394.807Z" fill="#AEB7CE"/>
</g>
</g>
<g id="Group_203">
<g id="Group_204">
<path id="Vector_122" d="M350.159 392.291C350.159 392.291 350.398 393.83 350.503 394.026C350.608 394.222 349.554 393.732 349.56 393.236C349.565 392.739 349.928 392.744 350.159 392.291Z" fill="#AEB7CE"/>
</g>
</g>
<g id="Group_205">
<g id="Group_206">
<path id="Vector_123" d="M349.906 395.966C349.906 395.966 350.41 397.44 350.547 397.614C350.684 397.788 349.561 397.49 349.48 397C349.399 396.51 349.757 396.453 349.906 395.966Z" fill="#AEB7CE"/>
</g>
</g>
<g id="Group_207">
<g id="Group_208">
<path id="Vector_124" d="M357.781 397.561C357.781 397.561 356.885 398.177 356.736 398.218C356.587 398.259 357.34 398.559 357.589 398.318C357.838 398.077 357.661 397.896 357.781 397.561Z" fill="#AEB7CE"/>
</g>
</g>
<g id="Group_209">
<g id="Group_210">
<path id="Vector_125" d="M347.412 392.701C347.412 392.701 347.526 393.782 347.592 393.922C347.658 394.062 346.941 393.685 346.962 393.339C346.983 392.993 347.236 393.01 347.412 392.701Z" fill="#AEB7CE"/>
</g>
</g>
<g id="Group_211">
<g id="Group_212">
<path id="Vector_126" d="M346.49 400.443C346.49 400.443 345.992 401.409 345.88 401.516C345.768 401.622 346.573 401.531 346.679 401.201C346.784 400.87 346.542 400.794 346.49 400.443Z" fill="#AEB7CE"/>
</g>
</g>
<g id="Group_213">
<g id="Group_214">
<path id="Vector_127" d="M354.585 389.838C354.585 389.838 353.689 390.454 353.54 390.495C353.391 390.535 354.144 390.835 354.393 390.595C354.642 390.354 354.465 390.172 354.585 389.838Z" fill="#AEB7CE"/>
</g>
</g>
<g id="Group_215">
<g id="Group_216">
<path id="Vector_128" d="M347.223 387.935C347.223 387.935 347.093 389.014 347.025 389.153C346.957 389.292 347.68 388.925 347.664 388.579C347.648 388.233 347.395 388.246 347.223 387.935Z" fill="#AEB7CE"/>
</g>
</g>
<g id="Group_217">
<g id="Group_218">
<path id="Vector_129" d="M342.326 397.84C342.326 397.84 342.711 398.965 342.815 399.099C342.92 399.232 342.062 399.004 342.001 398.63C341.939 398.256 342.212 398.212 342.326 397.84Z" fill="#AEB7CE"/>
</g>
</g>
<g id="Group_219">
<g id="Group_220">
<path id="Vector_130" d="M336.768 395.52C336.768 395.52 337.175 396.272 337.265 396.354C337.355 396.436 336.72 396.377 336.632 396.119C336.544 395.861 336.732 395.798 336.768 395.52Z" fill="#AEB7CE"/>
</g>
</g>
<g id="Group_221">
<g id="Group_222">
<path id="Vector_131" d="M335.98 389.432C335.98 389.432 336.402 390.211 336.495 390.296C336.588 390.381 335.93 390.32 335.839 390.052C335.747 389.785 335.942 389.719 335.98 389.432Z" fill="#AEB7CE"/>
</g>
</g>
<g id="Group_223">
<g id="Group_224">
<path id="Vector_132" d="M345.314 403.389C345.314 403.389 344.803 402.459 344.843 401.939C344.884 401.419 344.148 402.512 344.479 403.029C344.812 403.548 345.172 403.402 345.314 403.389Z" fill="#AEB7CE"/>
</g>
</g>
<g id="Group_225">
<g id="Group_226">
<path id="Vector_133" d="M339.696 400.529C339.696 400.529 339.035 399.699 338.987 399.18C338.939 398.661 338.399 399.862 338.813 400.316C339.228 400.77 339.558 400.565 339.696 400.529Z" fill="#AEB7CE"/>
</g>
</g>
<g id="Group_227">
<g id="Group_228">
<path id="Vector_134" d="M332.413 391.128L332.206 391.235L336.925 400.367L337.132 400.26L332.413 391.128Z" fill="#AEB7CE"/>
</g>
</g>
<g id="Group_229">
<g id="Group_230">
<path id="Vector_135" d="M330.51 392.349L330.307 392.464L336.631 403.555L336.833 403.439L330.51 392.349Z" fill="#AEB7CE"/>
</g>
</g>
<g id="Group_231">
<g id="Group_232">
<path id="Vector_136" d="M358.372 402.367L352.222 404.689L352.304 404.907L358.454 402.584L358.372 402.367Z" fill="#AEB7CE"/>
</g>
</g>
</g>
</g>
<path id="Vector_137" d="M334.499 343.2L286.424 393.707L306.416 390.075L334.499 343.2Z" fill="#E9EEFF"/>
<g id="Group_233">
<path id="Vector_138" d="M289.231 438.543C288.869 438.558 288.73 438.086 289.059 437.96L289.943 437.624C279.447 439.552 268.77 440.358 258.065 441.709C258.037 441.788 257.984 441.858 257.873 441.886L242.314 445.866C241.738 446.013 241.961 446.831 242.56 446.767L260.197 444.876C260.553 444.838 260.73 445.296 260.417 445.447L248.481 451.186C248.158 451.341 248.355 451.816 248.717 451.754C257.421 450.286 286.313 443.886 289.047 443.49C292.86 442.937 303.776 439.624 303.179 438.754C302.716 438.078 293.356 438.377 289.231 438.543Z" fill="#E2EAED"/>
</g>
<path id="Vector_139" d="M230.5 382.745L177.422 420.872L197.957 414.475L230.5 382.745Z" fill="#E9EEFF"/>
<g id="Group_234">
<g id="Group_235">
<path id="Vector_140" d="M276.283 396.729L271.857 381.764C271.435 382.396 266.377 397.993 266.377 397.993L269.117 401.365H265.323L259.421 421.177L259.46 421.209C264.582 414.694 269.848 408.275 275.278 401.95L276.283 396.729Z" fill="#66835F"/>
</g>
<g id="Group_236">
<path id="Vector_141" d="M283.66 417.384L278.391 421.81L281.974 412.431L277.759 400.101L275.23 402.209L275.28 401.951C269.849 408.277 264.584 414.696 259.462 421.21L264.06 424.972H258.158L254.996 434.878L265.534 443.098L279.655 439.936L288.297 431.716L283.66 417.384Z" fill="#66835F" fill-opacity="0.9"/>
</g>
</g>
<g id="Group_237">
<g id="Group_238">
<path id="Vector_142" d="M551.451 397.533L565.671 397.868C566.045 397.877 566.107 398.408 565.744 398.503L554.316 401.472C553.934 401.571 554.03 402.138 554.423 402.106L560.056 401.644C560.688 401.592 560.819 402.515 560.198 402.642L551.489 404.419C551.133 404.492 551.149 405.006 551.509 405.054C555.612 405.601 564.903 406.922 565.188 407.706C565.553 408.714 553.959 410.254 550.064 410.163C547.271 410.098 517.191 411.71 508.247 411.717C507.874 411.717 507.802 411.19 508.16 411.085L521.378 407.203C521.724 407.101 521.667 406.594 521.307 406.572L503.46 405.461C502.854 405.423 502.843 404.535 503.448 404.482L519.784 403.059C520.165 403.026 520.183 402.474 519.804 402.419C517.215 402.043 513.855 401.458 514.02 400.977C514.279 400.218 528.963 397.658 529.656 397.537C529.674 397.534 529.691 397.533 529.709 397.533H551.451Z" fill="#E4E8EA"/>
</g>
<g id="Group_239">
<g id="Group_240">
<path id="Vector_143" d="M541.273 359.288L536.751 344C536.32 344.646 531.153 360.58 531.153 360.58L533.952 364.025H530.076L524.047 384.266L524.087 384.299C529.32 377.643 534.699 371.086 540.247 364.623L541.273 359.288Z" fill="#66835F"/>
</g>
<g id="Group_241">
<path id="Vector_144" d="M548.809 380.39L543.426 384.912L547.087 375.33L542.78 362.733L540.196 364.886L540.247 364.622C534.699 371.084 529.319 377.642 524.087 384.298L528.784 388.141H522.755L519.525 398.261L530.291 406.659L544.718 403.429L553.546 395.031L548.809 380.39Z" fill="#66835F"/>
</g>
</g>
</g>
<g id="Group_242">
<g id="Group_243">
<path id="Vector_145" d="M396.532 387.893L404.987 388.092C405.209 388.097 405.246 388.413 405.031 388.469L398.236 390.234C398.009 390.293 398.066 390.63 398.3 390.611L401.649 390.336C402.025 390.305 402.103 390.854 401.734 390.929L396.556 391.986C396.344 392.029 396.354 392.335 396.568 392.364C399.008 392.689 404.532 393.475 404.701 393.941C404.918 394.54 398.025 395.456 395.709 395.402C394.048 395.363 376.164 396.322 370.846 396.326C370.624 396.326 370.582 396.013 370.794 395.95L378.653 393.642C378.859 393.582 378.825 393.28 378.611 393.267L368 392.606C367.64 392.584 367.633 392.055 367.993 392.024L377.706 391.178C377.933 391.158 377.943 390.83 377.718 390.798C376.179 390.574 374.181 390.227 374.279 389.941C374.433 389.489 383.164 387.968 383.575 387.896C383.586 387.894 383.596 387.893 383.607 387.893H396.532Z" fill="#E4E8EA"/>
</g>
<g id="Group_244">
<g id="Group_245">
<path id="Vector_146" d="M390.48 365.155L387.792 356.065C387.536 356.449 384.463 365.923 384.463 365.923L386.127 367.971H383.823L380.238 380.005L380.262 380.024C383.373 376.067 386.572 372.168 389.87 368.326L390.48 365.155Z" fill="#66835F"/>
</g>
<g id="Group_246">
<path id="Vector_147" d="M394.961 377.701L391.76 380.389L393.936 374.692L391.376 367.203L389.84 368.483L389.87 368.326C386.571 372.168 383.373 376.067 380.262 380.024L383.055 382.309H379.47L377.55 388.326L383.951 393.319L392.529 391.399L397.778 386.406L394.961 377.701Z" fill="#66835F"/>
</g>
</g>
</g>
<g id="Group_247">
<g id="Group_248">
<path id="Vector_148" d="M253.752 409.105L260.537 409.265C260.715 409.269 260.745 409.523 260.572 409.568L255.119 410.985C254.937 411.032 254.983 411.303 255.17 411.287L257.857 411.066C258.159 411.041 258.221 411.482 257.925 411.542L253.77 412.39C253.6 412.425 253.608 412.67 253.78 412.693C255.738 412.954 260.171 413.584 260.307 413.959C260.481 414.44 254.949 415.175 253.091 415.131C251.758 415.1 237.406 415.869 233.139 415.873C232.961 415.873 232.927 415.622 233.097 415.571L239.404 413.719C239.569 413.67 239.542 413.428 239.37 413.418L230.854 412.888C230.565 412.87 230.56 412.446 230.848 412.421L238.642 411.742C238.824 411.726 238.832 411.463 238.652 411.437C237.417 411.257 235.814 410.978 235.892 410.749C236.016 410.387 243.022 409.165 243.352 409.108C243.361 409.106 243.368 409.106 243.377 409.106H253.752V409.105Z" fill="#E4E8EA"/>
</g>
<g id="Group_249">
<g id="Group_250">
<path id="Vector_149" d="M248.895 390.857L246.737 383.563C246.532 383.871 244.066 391.474 244.066 391.474L245.402 393.118H243.553L240.676 402.776L240.695 402.792C243.192 399.616 245.759 396.487 248.406 393.404L248.895 390.857Z" fill="#799599"/>
</g>
<g id="Group_251">
<path id="Vector_150" d="M252.491 400.925L249.923 403.083L251.67 398.511L249.615 392.501L248.382 393.528L248.406 393.402C245.759 396.485 243.192 399.614 240.695 402.79L242.936 404.624H240.059L238.518 409.453L243.655 413.46L250.539 411.919L254.751 407.912L252.491 400.925Z" fill="#749096"/>
</g>
</g>
</g>
<g id="Group_252">
<g id="Group_253">
<path id="Vector_151" d="M416.815 470.054C411.784 474.618 411.383 479.415 412.834 483.619H413.548C411.231 475.515 416.815 470.054 416.815 470.054Z" fill="#AEB7CE"/>
</g>
<g id="Group_254">
<path id="Vector_152" d="M416.206 473.726C414.559 477.206 414.228 480.794 414.593 484.147H415.019C414.426 477.83 416.206 473.726 416.206 473.726Z" fill="#AEB7CE"/>
</g>
<g id="Group_255">
<path id="Vector_153" d="M408.209 475.505C408.144 477.837 408.648 480.148 409.501 482.369H409.925C408.231 478.188 408.209 475.505 408.209 475.505Z" fill="#AEB7CE"/>
</g>
</g>
<g id="Group_256">
<g id="Group_257">
<path id="Vector_154" d="M700.555 473.083C695.524 477.647 695.123 482.444 696.574 486.648H697.288C694.971 478.544 700.555 473.083 700.555 473.083Z" fill="#AEB7CE"/>
</g>
<g id="Group_258">
<path id="Vector_155" d="M699.946 476.756C698.299 480.236 697.967 483.824 698.333 487.177H698.759C698.166 480.86 699.946 476.756 699.946 476.756Z" fill="#AEB7CE"/>
</g>
<g id="Group_259">
<path id="Vector_156" d="M691.949 478.534C691.884 480.866 692.388 483.177 693.241 485.398H693.665C691.971 481.217 691.949 478.534 691.949 478.534Z" fill="#AEB7CE"/>
</g>
</g>
<g id="Group_260">
<g id="Group_261">
<path id="Vector_157" d="M490.584 406.357C486.864 409.732 486.567 413.279 487.64 416.387H488.168C486.454 410.395 490.584 406.357 490.584 406.357Z" fill="#AEB7CE"/>
</g>
<g id="Group_262">
<path id="Vector_158" d="M490.133 409.073C488.915 411.646 488.67 414.299 488.94 416.779H489.255C488.817 412.108 490.133 409.073 490.133 409.073Z" fill="#AEB7CE"/>
</g>
<g id="Group_263">
<path id="Vector_159" d="M484.22 410.388C484.172 412.112 484.544 413.821 485.176 415.463H485.49C484.236 412.372 484.22 410.388 484.22 410.388Z" fill="#AEB7CE"/>
</g>
</g>
<g id="Group_264">
<g id="Group_265">
<path id="Vector_160" d="M312.603 418.019C308.883 421.394 308.586 424.941 309.659 428.049H310.187C308.473 422.057 312.603 418.019 312.603 418.019Z" fill="#AEB7CE"/>
</g>
<g id="Group_266">
<path id="Vector_161" d="M312.152 420.734C310.934 423.307 310.689 425.96 310.959 428.44H311.274C310.836 423.769 312.152 420.734 312.152 420.734Z" fill="#AEB7CE"/>
</g>
<g id="Group_267">
<path id="Vector_162" d="M306.239 422.05C306.191 423.774 306.563 425.483 307.195 427.125H307.509C306.256 424.033 306.239 422.05 306.239 422.05Z" fill="#AEB7CE"/>
</g>
</g>
<g id="Group_268">
<g id="Group_269">
<path id="Vector_163" d="M258.179 465.37C254.459 468.745 254.162 472.292 255.235 475.4H255.763C254.05 469.408 258.179 465.37 258.179 465.37Z" fill="#AEB7CE"/>
</g>
<g id="Group_270">
<path id="Vector_164" d="M257.729 468.086C256.511 470.659 256.266 473.312 256.536 475.792H256.851C256.413 471.121 257.729 468.086 257.729 468.086Z" fill="#AEB7CE"/>
</g>
<g id="Group_271">
<path id="Vector_165" d="M251.815 469.401C251.767 471.125 252.139 472.834 252.771 474.476H253.085C251.832 471.385 251.815 469.401 251.815 469.401Z" fill="#AEB7CE"/>
</g>
</g>
<g id="Group_272">
<g id="Group_273">
<path id="Vector_166" d="M550.967 474.871C548.611 478.101 548.069 481.468 548.428 484.565H548.888C548.377 478.703 550.967 474.871 550.967 474.871Z" fill="#B7B0BA"/>
</g>
<g id="Group_274">
<path id="Vector_167" d="M551.685 477.046C550.871 479.646 550.631 482.317 550.726 484.86H550.969C550.811 480.087 551.685 477.046 551.685 477.046Z" fill="#B7B0BA"/>
</g>
<g id="Group_275">
<path id="Vector_168" d="M546.468 480.276C546.443 481.63 546.569 482.974 546.803 484.293H547.001C546.478 481.799 546.468 480.276 546.468 480.276Z" fill="#B7B0BA"/>
</g>
</g>
<g id="Group_276">
<g id="Group_277">
<path id="Vector_169" d="M622.956 413.203C620.844 416.099 620.358 419.118 620.68 421.895H621.092C620.633 416.639 622.956 413.203 622.956 413.203Z" fill="#AEB7CE"/>
</g>
<g id="Group_278">
<path id="Vector_170" d="M623.6 415.153C622.87 417.484 622.655 419.879 622.74 422.159H622.958C622.816 417.88 623.6 415.153 623.6 415.153Z" fill="#AEB7CE"/>
</g>
<g id="Group_279">
<path id="Vector_171" d="M618.922 418.049C618.899 419.263 619.013 420.468 619.222 421.65H619.4C618.931 419.415 618.922 418.049 618.922 418.049Z" fill="#AEB7CE"/>
</g>
</g>
<g id="Group_280" opacity="0.76">
<g id="Group_281" opacity="0.76">
<g id="Group_282" opacity="0.76">
<path id="Vector_172" opacity="0.76" d="M300.132 106.646C300.132 106.646 313.333 102.032 314.385 112.124C314.788 115.991 306.427 103.244 300.132 106.646Z" fill="#AEB7CE"/>
</g>
<g id="Group_283" opacity="0.76">
<path id="Vector_173" opacity="0.76" d="M301.68 106.115C301.68 106.115 301.818 97.41 295.649 98.767C293.284 99.287 302.455 101.728 301.68 106.115Z" fill="#AEB7CE"/>
</g>
</g>
<g id="Group_284" opacity="0.76">
<g id="Group_285" opacity="0.76">
<path id="Vector_174" opacity="0.76" d="M308.474 127.332C308.474 127.332 316.444 124.546 317.079 130.639C317.323 132.974 312.275 125.278 308.474 127.332Z" fill="#AEB7CE"/>
</g>
<g id="Group_286" opacity="0.76">
<path id="Vector_175" opacity="0.76" d="M309.409 127.012C309.409 127.012 309.492 121.756 305.767 122.575C304.34 122.889 309.877 124.363 309.409 127.012Z" fill="#AEB7CE"/>
</g>
</g>
</g>
<g id="Group_287" opacity="0.52">
<g id="Group_288" opacity="0.52">
<g id="Group_289" opacity="0.52">
<path id="Vector_176" opacity="0.52" d="M95.994 181.007C95.994 181.007 109.195 176.393 110.247 186.484C110.65 190.352 102.289 177.605 95.994 181.007Z" fill="#AEB7CE"/>
</g>
<g id="Group_290" opacity="0.52">
<path id="Vector_177" opacity="0.52" d="M97.542 180.476C97.542 180.476 97.68 171.771 91.511 173.128C89.146 173.648 98.317 176.089 97.542 180.476Z" fill="#AEB7CE"/>
</g>
</g>
<g id="Group_291" opacity="0.52">
<g id="Group_292" opacity="0.52">
<path id="Vector_178" opacity="0.52" d="M104.336 201.693C104.336 201.693 112.306 198.907 112.941 205C113.185 207.335 108.138 199.639 104.336 201.693Z" fill="#AEB7CE"/>
</g>
<g id="Group_293" opacity="0.52">
<path id="Vector_179" opacity="0.52" d="M105.271 201.373C105.271 201.373 105.354 196.117 101.629 196.936C100.202 197.25 105.739 198.724 105.271 201.373Z" fill="#AEB7CE"/>
</g>
</g>
</g>
<g id="Group_294">
<g id="Group_295">
<g id="Group_296">
<g id="Group_297">
<path id="Vector_180" d="M403.588 391.657H404.783V368.751C404.385 368.827 403.986 368.917 403.588 369.04V391.657Z" fill="#B7B0BA"/>
</g>
<g id="Group_298">
<path id="Vector_181" d="M403.963 337.478L403.589 369.041C403.961 368.935 404.386 368.878 404.784 368.752L404.536 338.316L404.147 336.739L403.963 337.478Z" fill="#B7B0BA"/>
</g>
<g id="Group_299">
<path id="Vector_182" d="M404.099 351.11H403.589V369.04C403.788 368.978 403.987 368.925 404.186 368.878L404.099 351.11Z" fill="#F0EAE2"/>
</g>
<g id="Group_300">
<path id="Vector_183" d="M403.588 369.04V391.657H404.185V368.878C403.987 368.925 403.787 368.979 403.588 369.04Z" fill="#F0EAE2"/>
</g>
</g>
<g id="Group_301">
<path id="Vector_184" opacity="0.53" d="M404.104 336.644L400.124 352.669L404.112 352.416L399.85 353.148V353.558L404.119 353.158L404.133 354.535L399.509 355.474L397.798 362.108L404.195 360.815L404.205 361.773L397.798 362.861L397.456 363.818L404.228 364.092L404.104 336.644Z" fill="#B7B0BA"/>
</g>
<g id="Group_302">
<path id="Vector_185" d="M413.055 364.48L404.57 363.696L404.186 336.678L407.306 347.006L405.049 346.938L407.443 347.69L407.633 348.303L405.459 348.237L407.717 348.716L410.042 357.335L404.57 356.856V357.608L410.665 359.222L413.055 364.48Z" fill="#B7B0BA"/>
</g>
<g id="Group_303">
<path id="Vector_186" d="M404.201 364.639V366.007H397.292L404.201 364.639Z" fill="#B7B0BA"/>
</g>
<g id="Group_304">
<path id="Vector_187" d="M411.786 365.323L404.57 364.639V365.323L412.143 366.481L411.786 365.323Z" fill="#B7B0BA"/>
</g>
</g>
<g id="Group_305">
<path id="Vector_188" d="M404.141 355.331L399.321 356.405L399.015 357.592L404.151 356.401L404.141 355.331Z" fill="#B7B0BA"/>
</g>
<g id="Group_306">
<path id="Vector_189" d="M404.411 348.721V348.823V349.493L408.086 350.086L408.007 349.661L404.411 348.721Z" fill="#DCD7D6"/>
</g>
<g id="Group_307">
<path id="Vector_190" d="M404.147 346.861L401.434 347.448L401.551 346.973L404.147 346.262V346.861Z" fill="#F0EAE2"/>
</g>
<g id="Group_308">
<path id="Vector_191" d="M404.514 358.108L404.526 359.357L411.5 361.049L411.036 360.034L404.514 358.108Z" fill="#DCD7D6"/>
</g>
<g id="Group_309">
<path id="Vector_192" d="M404.3 344.56L406.765 345.214L406.692 344.974L404.293 343.911L404.3 344.56Z" fill="#DCD7D6"/>
</g>
</g>
<g id="Group_310">
<g id="Group_311">
<g id="Group_312">
<g id="Group_313">
<path id="Vector_193" d="M326.425 403.311H327.62V380.405C327.222 380.481 326.823 380.571 326.425 380.694V403.311Z" fill="#B7B0BA"/>
</g>
<g id="Group_314">
<path id="Vector_194" d="M326.8 349.131L326.426 380.694C326.798 380.588 327.223 380.531 327.621 380.405L327.373 349.969L326.984 348.392L326.8 349.131Z" fill="#B7B0BA"/>
</g>
<g id="Group_315">
<path id="Vector_195" d="M326.936 362.764H326.426V380.694C326.625 380.632 326.824 380.579 327.023 380.532L326.936 362.764Z" fill="#F0EAE2"/>
</g>
<g id="Group_316">
<path id="Vector_196" d="M326.425 380.694V403.311H327.022V380.532C326.824 380.579 326.624 380.633 326.425 380.694Z" fill="#F0EAE2"/>
</g>
</g>
<g id="Group_317">
<path id="Vector_197" opacity="0.53" d="M326.94 348.297L322.961 364.323L326.949 364.069L322.687 364.801V365.212L326.956 364.812L326.97 366.189L322.345 367.127L320.635 373.762L327.032 372.469L327.042 373.427L320.635 374.514L320.293 375.472L327.065 375.746L326.94 348.297Z" fill="#B7B0BA"/>
</g>
<g id="Group_318">
<path id="Vector_198" d="M335.892 376.133L327.407 375.35L327.023 348.331L330.143 358.66L327.886 358.591L330.28 359.344L330.47 359.957L328.296 359.891L330.554 360.37L332.879 368.988L327.407 368.51V369.262L333.502 370.876L335.892 376.133Z" fill="#B7B0BA"/>
</g>
<g id="Group_319">
<path id="Vector_199" d="M327.038 376.293V377.661H320.129L327.038 376.293Z" fill="#B7B0BA"/>
</g>
<g id="Group_320">
<path id="Vector_200" d="M334.623 376.977L327.407 376.293V376.977L334.98 378.135L334.623 376.977Z" fill="#B7B0BA"/>
</g>
</g>
<g id="Group_321">
<path id="Vector_201" d="M326.978 366.984L322.158 368.058L321.852 369.246L326.988 368.054L326.978 366.984Z" fill="#B7B0BA"/>
</g>
<g id="Group_322">
<path id="Vector_202" d="M327.248 360.374V360.477V361.147L330.923 361.74L330.844 361.315L327.248 360.374Z" fill="#DCD7D6"/>
</g>
<g id="Group_323">
<path id="Vector_203" d="M326.984 358.515L324.271 359.102L324.388 358.627L326.984 357.916V358.515Z" fill="#F0EAE2"/>
</g>
<g id="Group_324">
<path id="Vector_204" d="M327.351 369.762L327.363 371.01L334.337 372.703L333.873 371.688L327.351 369.762Z" fill="#DCD7D6"/>
</g>
<g id="Group_325">
<path id="Vector_205" d="M327.137 356.214L329.602 356.867L329.529 356.628L327.13 355.565L327.137 356.214Z" fill="#DCD7D6"/>
</g>
</g>
<g id="Group_326">
<g id="Group_327">
<g id="Group_328">
<g id="Group_329">
<path id="Vector_206" d="M289.554 406.659H290.749V387.05C290.351 387.115 289.952 387.192 289.554 387.297V406.659Z" fill="#B7B0BA"/>
</g>
<g id="Group_330">
<path id="Vector_207" d="M289.929 360.276L289.555 387.297C289.927 387.206 290.352 387.158 290.75 387.05L290.502 360.994L290.113 359.644L289.929 360.276Z" fill="#B7B0BA"/>
</g>
<g id="Group_331">
<path id="Vector_208" d="M290.065 371.947H289.555V387.297C289.754 387.244 289.953 387.198 290.152 387.158L290.065 371.947Z" fill="#F0EAE2"/>
</g>
<g id="Group_332">
<path id="Vector_209" d="M289.554 387.297V406.659H290.151V387.158C289.953 387.198 289.753 387.244 289.554 387.297Z" fill="#F0EAE2"/>
</g>
</g>
<g id="Group_333">
<path id="Vector_210" opacity="0.53" d="M290.069 359.562L286.09 373.281L290.078 373.064L285.816 373.691V374.042L290.085 373.7L290.099 374.879L285.474 375.682L283.764 381.362L290.161 380.255L290.171 381.075L283.764 382.006L283.422 382.826L290.194 383.06L290.069 359.562Z" fill="#B7B0BA"/>
</g>
<g id="Group_334">
<path id="Vector_211" d="M299.021 383.392L290.536 382.721L290.152 359.591L293.272 368.433L291.015 368.374L293.409 369.019L293.599 369.543L291.425 369.487L293.683 369.897L296.008 377.275L290.536 376.865V377.509L296.631 378.891L299.021 383.392Z" fill="#B7B0BA"/>
</g>
<g id="Group_335">
<path id="Vector_212" d="M290.167 383.529V384.7H283.258L290.167 383.529Z" fill="#B7B0BA"/>
</g>
<g id="Group_336">
<path id="Vector_213" d="M297.752 384.114L290.536 383.529V384.114L298.109 385.106L297.752 384.114Z" fill="#B7B0BA"/>
</g>
</g>
<g id="Group_337">
<path id="Vector_214" d="M290.107 375.56L285.287 376.479L284.981 377.496L290.117 376.476L290.107 375.56Z" fill="#B7B0BA"/>
</g>
<g id="Group_338">
<path id="Vector_215" d="M290.377 369.901V369.989V370.562L294.052 371.07L293.973 370.706L290.377 369.901Z" fill="#DCD7D6"/>
</g>
<g id="Group_339">
<path id="Vector_216" d="M290.113 368.309L287.4 368.812L287.517 368.405L290.113 367.796V368.309Z" fill="#F0EAE2"/>
</g>
<g id="Group_340">
<path id="Vector_217" d="M290.48 377.938L290.492 379.006L297.466 380.455L297.002 379.586L290.48 377.938Z" fill="#DCD7D6"/>
</g>
<g id="Group_341">
<path id="Vector_218" d="M290.266 366.339L292.731 366.898L292.658 366.694L290.259 365.783L290.266 366.339Z" fill="#DCD7D6"/>
</g>
</g>
<g id="Group_342">
<g id="Group_343">
<g id="Group_344">
<path id="Vector_219" d="M562.918 436.399H564.99V396.678C564.3 396.81 563.609 396.965 562.918 397.179V436.399Z" fill="#B7B0BA"/>
</g>
<g id="Group_345">
<path id="Vector_220" d="M563.567 342.447L562.918 397.18C563.563 396.996 564.299 396.898 564.99 396.679L564.56 343.9L563.885 341.164L563.567 342.447Z" fill="#B7B0BA"/>
</g>
<g id="Group_346">
<path id="Vector_221" d="M563.803 366.087H562.918V397.18C563.263 397.073 563.609 396.98 563.954 396.899L563.803 366.087Z" fill="#F0EAE2"/>
</g>
<g id="Group_347">
<path id="Vector_222" d="M562.918 397.179V436.398H563.954V396.897C563.609 396.98 563.263 397.073 562.918 397.179Z" fill="#F0EAE2"/>
</g>
</g>
<path id="Vector_223" d="M563.811 341L556.911 368.79L563.825 368.35L556.436 369.62V370.332L563.838 369.638L563.862 372.026L555.843 373.653L552.878 385.158L563.971 382.916L563.987 384.578L552.878 386.463L552.285 388.124L564.027 388.598L563.811 341Z" fill="#C6C0C9"/>
<g id="Group_348">
<path id="Vector_224" d="M579.334 389.271L564.621 387.911L563.954 341.059L569.365 358.97L565.451 358.851L569.602 360.156L569.931 361.219L566.162 361.105L570.077 361.935L574.11 376.88L564.621 376.05V377.355L575.189 380.153L579.334 389.271Z" fill="#B7B0BA"/>
</g>
<g id="Group_349">
<path id="Vector_225" d="M563.98 389.547V391.919H552L563.98 389.547Z" fill="#B7B0BA"/>
</g>
<g id="Group_350">
<path id="Vector_226" d="M577.134 390.733L564.62 389.547V390.733L577.752 392.741L577.134 390.733Z" fill="#B7B0BA"/>
</g>
<g id="Group_351">
<path id="Vector_227" d="M563.876 373.405L555.518 375.267L554.988 377.327L563.894 375.261L563.876 373.405Z" fill="#F0EAE2"/>
</g>
<g id="Group_352">
<path id="Vector_228" d="M564.345 361.943V362.12V363.282L570.718 364.311L570.58 363.573L564.345 361.943Z" fill="#DCD7D6"/>
</g>
<g id="Group_353">
<path id="Vector_229" d="M563.887 358.718L559.182 359.736L559.386 358.912L563.887 357.68V358.718Z" fill="#F0EAE2"/>
</g>
<g id="Group_354">
<path id="Vector_230" d="M564.523 378.222L564.545 380.387L576.638 383.322L575.832 381.561L564.523 378.222Z" fill="#DCD7D6"/>
</g>
<g id="Group_355">
<path id="Vector_231" d="M564.152 354.729L568.426 355.861L568.301 355.447L564.14 353.602L564.152 354.729Z" fill="#DCD7D6"/>
</g>
</g>
<g id="Group_356">
<g id="Group_357">
<g id="Group_358">
<path id="Vector_232" d="M178.367 444.196H179.735V417.972C179.279 418.059 178.823 418.162 178.367 418.303V444.196Z" fill="#A2AAA2"/>
</g>
<g id="Group_359">
<path id="Vector_233" d="M178.795 382.168L178.366 418.303C178.792 418.182 179.278 418.117 179.734 417.972L179.45 383.126L179.005 381.32L178.795 382.168Z" fill="#A2AAA2"/>
</g>
<g id="Group_360">
<path id="Vector_234" d="M178.951 397.775H178.367V418.303C178.595 418.233 178.823 418.171 179.051 418.117L178.951 397.775Z" fill="#F0EAE2"/>
</g>
<g id="Group_361">
<path id="Vector_235" d="M178.367 418.303V444.196H179.051V418.117C178.823 418.171 178.595 418.233 178.367 418.303Z" fill="#F0EAE2"/>
</g>
</g>
<path id="Vector_236" d="M178.956 381.213L174.4 399.56L178.966 399.27L174.087 400.108V400.578L178.974 400.12L178.99 401.696L173.696 402.771L171.738 410.367L179.062 408.886L179.072 409.983L171.738 411.228L171.346 412.324L179.099 412.638L178.956 381.213Z" fill="#C6C0C9"/>
<g id="Group_362">
<path id="Vector_237" d="M189.205 413.082L179.491 412.184L179.05 381.252L182.623 393.077L180.039 392.998L182.78 393.86L182.997 394.561L180.509 394.486L183.093 395.034L185.755 404.901L179.491 404.353V405.214L186.468 407.062L189.205 413.082Z" fill="#A2AAA2"/>
</g>
<g id="Group_363">
<path id="Vector_238" d="M179.068 413.264V414.83H171.158L179.068 413.264Z" fill="#A2AAA2"/>
</g>
<g id="Group_364">
<path id="Vector_239" d="M187.752 414.047L179.49 413.264V414.047L188.16 415.373L187.752 414.047Z" fill="#A2AAA2"/>
</g>
<g id="Group_365">
<path id="Vector_240" d="M178.999 402.607L173.481 403.837L173.131 405.196L179.011 403.832L178.999 402.607Z" fill="#F0EAE2"/>
</g>
<g id="Group_366">
<path id="Vector_241" d="M179.309 395.039V395.157V395.924L183.516 396.603L183.425 396.116L179.309 395.039Z" fill="#DCD7D6"/>
</g>
<g id="Group_367">
<path id="Vector_242" d="M179.006 392.91L175.9 393.583L176.034 393.039L179.006 392.225V392.91Z" fill="#F0EAE2"/>
</g>
<g id="Group_368">
<path id="Vector_243" d="M179.426 405.787L179.44 407.216L187.424 409.154L186.893 407.992L179.426 405.787Z" fill="#DCD7D6"/>
</g>
<g id="Group_369">
<path id="Vector_244" d="M179.181 390.276L182.003 391.024L181.92 390.751L179.173 389.533L179.181 390.276Z" fill="#DCD7D6"/>
</g>
</g>
<g id="Group_370">
<g id="Group_371">
<path id="Vector_245" d="M547.57 474.871C545.214 478.101 544.672 481.468 545.031 484.565H545.491C544.98 478.703 547.57 474.871 547.57 474.871Z" fill="#B7B0BA"/>
</g>
<g id="Group_372">
<path id="Vector_246" d="M548.288 477.046C547.474 479.646 547.234 482.317 547.329 484.86H547.572C547.414 480.087 548.288 477.046 548.288 477.046Z" fill="#B7B0BA"/>
</g>
<g id="Group_373">
<path id="Vector_247" d="M543.071 480.276C543.046 481.63 543.172 482.974 543.406 484.293H543.604C543.081 481.799 543.071 480.276 543.071 480.276Z" fill="#B7B0BA"/>
</g>
</g>
<path id="Vector_248" d="M729.88 85L670.72 208.79V189.682L622.58 296.025L619.68 290.209L564 414L757.73 413.578L796 345.042L729.88 85Z" fill="#F7FAFA"/>
<path id="Vector_249" d="M581 389L651 293L616 389H581Z" fill="#E3E8F3"/>
<path id="Vector_250" d="M694 397C694 395.487 715.451 354.679 715.451 354.679L716.07 357.201L718.548 334L724 385.949L694 397Z" fill="#EDEAE9"/>
</g>
</g>
<defs>
<linearGradient id="paint0_linear_2:2" x1="720" y1="250" x2="-4.99957" y2="250" gradientUnits="userSpaceOnUse">
<stop offset="0.0086" stop-color="#22A2FF"/>
<stop offset="0.6183" stop-color="#E7FAFF"/>
<stop offset="0.9908" stop-color="#DDFDFF"/>
<stop offset="0.9909" stop-color="#FEFFFF"/>
<stop offset="0.9975" stop-color="white"/>
</linearGradient>
<clipPath id="clip0_2:2">
<rect width="720" height="504" fill="white"/>
</clipPath>
</defs>
</svg>
